# xmcd
#
# Track frame offsets:
#	150
#	19650
#	35775
#	55650
#	71775
#	89100
#	108600
#	123975
#	136425
#	151575
#	166425
#	185925
#	202050
#	221925
#	238050
#	255375
#	274875
#	290250
#	302700
#	317850
#
# Disc length: 4438 seconds
#
# Revision: 1
# Processed by: cddbd v1.5.2PL0 Copyright (c) Steve Scherf et al.
# Submitted via: audiograbber 1.83.01
#
DISCID=3c115414
DTITLE=Country Hits Monthly - May 2000
DYEAR=1900
DGENRE=karaoke
TTITLE0=Alan Jackson - The Blues Man
TTITLE1=Lonestar - What About Now
TTITLE2=Reba McEntire - I'll Be
TTITLE3=Collin Ray - Couldn't Last A Moment
TTITLE4=She-Daisy - I Will...But
TTITLE5=Dixie Chicks - Goodbye Earl
TTITLE6=Kenny Chesney - What I Need To Do
TTITLE7=Trace Adkins - More
TTITLE8=Sonya Issacs - I've Forgotten How You Feel
TTITLE9=Jennifer Day - The Fun Of Your Love
TTITLE10=Alan Jackson  - The Blues Man (vocal)
TTITLE11=Lonestar - What About Now (vocal)
TTITLE12=Reba McEntire - I'll Be (vocal)
TTITLE13=Collin Ray - Couldn't Last A Moment (vocal)
TTITLE14=She-Daisy - I Will ... But (vocal)
TTITLE15=Dixie Chicks - Goodbye Earl (vocal)
TTITLE16=Kenny Chesney - What I Need To Do (vocal)
TTITLE17=Trace Adkins - More (vocal)
TTITLE18=Sonya Issacs - I've Forgotten How You Feel (vocal)
TTITLE19=Jennifer Day - The Fun Of Your Love (vocal)
EXTD=karaoke
EXTT0=
EXTT1=
EXTT2=
EXTT3=
EXTT4=
EXTT5=
EXTT6=
EXTT7=
EXTT8=
EXTT9=
EXTT10=
EXTT11=
EXTT12=
EXTT13=
EXTT14=
EXTT15=
EXTT16=
EXTT17=
EXTT18=
EXTT19=
PLAYORDER=
